<svg id="Layer_1" enable-background="new 0 0 512.002 512.002" height="512" viewBox="0 0 512.002 512.002" width="512"
     xmlns="http://www.w3.org/2000/svg">
    <path d="m433.644 206.471c-21.915-49.03-22.314-130.875-13.429-183.094.828-4.874-2.928-9.342-7.887-9.342h-312.654c-4.934 0-8.719 4.443-7.887 9.342 8.907 52.383 8.546 133.925-13.43 183.095-41.116 91.998-20.026 195.517 23.433 286.93 1.326 2.789 4.138 4.565 7.225 4.565h124.847c4.418 0 8-3.582 8-8 .619-156.372-1.509-151.765 1.701-157.685 7.073-13.067 26.577-7.658 26.577 6.717v150.969c0 4.418 3.582 8 8 8h124.847c3.088 0 5.899-1.776 7.225-4.565 43.604-91.721 64.433-194.889 23.432-286.932zm-8.216 22.408c-50.996 20.711-108.252 51.188-148.406 88.519-11.6-11.299-30.304-11.434-42.041 0-40.164-37.339-97.436-67.818-148.407-88.519 6.267-17.397 8.697-18.693 14.524-37.774l20.902-2.632c4.384-.552 7.49-4.554 6.938-8.938-.553-4.383-4.56-7.495-8.937-6.938l-14.5 1.826c1.114-4.931 2.109-10.016 2.983-15.253 23.356-2.197 136.802-20.924 295.035.005.874 5.235 1.868 10.319 2.982 15.249-17.176-1.518-96.638-16.084-207.447-9.59-4.411.259-7.776 4.044-7.518 8.454.258 4.411 4.041 7.768 8.455 7.519 111.085-6.51 189.625 8.382 210.913 10.299 5.687 18.622 8.477 20.989 14.524 37.773zm-22.354-198.844c-4.602 34.896-5.95 76.535-1.848 112.697-160.338-21.206-287.847-.168-290.449-.006 4.059-35.787 2.812-77.337-1.848-112.691zm-288.98 451.932c-34.711-74.661-54.737-159.274-32.429-237.816 82.118 33.411 127.211 70.48 145.106 87.507-.35 1.391-.606 2.82-.754 4.28-3.407 3.932-12.603 13.624-26.608 21.556-23.81 13.484-49.234 15.245-75.567 5.239-4.129-1.569-8.75.507-10.32 4.637s.506 8.751 4.636 10.32c39.249 14.913 77.381 6.448 107.704-19.273v123.552h-111.768zm283.813 0h-111.767v-123.758c30.074 25.645 68.279 34.554 107.945 19.48 4.13-1.569 6.206-6.19 4.637-10.32-1.57-4.132-6.193-6.205-10.32-4.637-26.138 9.935-51.392 8.267-75.061-4.954-14.583-8.146-24.176-18.434-27.399-22.184-.151-1.34-.389-2.655-.711-3.936 17.895-17.027 62.989-54.096 145.105-87.507 22.303 78.522 2.297 163.124-32.429 237.816z"/>
    <path d="m164.211 170.441c-6.133-6.133-16.362.592-13.05 8.721 2.181 5.223 8.964 6.65 13.05 2.59 3.123-3.213 3.116-8.106 0-11.311z"/>
</svg>
