<?xml version="1.0" encoding="iso-8859-1"?>
<!-- Generator: Adobe Illustrator 19.0.0, SVG Export Plug-In . SVG Version: 6.00 Build 0)  -->
<svg version="1.1" id="Layer_1" xmlns="http://www.w3.org/2000/svg" xmlns:xlink="http://www.w3.org/1999/xlink" x="0px" y="0px"
	 viewBox="0 0 512.001 512.001" style="enable-background:new 0 0 512.001 512.001;" xml:space="preserve">
<g>
	<g>
		<path d="M162.974,355.45l-2.744,14.905c6.089,1.291,11.517,2.332,17.804,3.401l2.24-14.984
			C174.418,357.763,168.645,356.658,162.974,355.45z"/>
	</g>
</g>
<g>
	<g>
		<path d="M88.068,330.984c-3.926-1.858-7.675-3.777-11.282-5.738l-8.009,12.92c4.086,2.235,8.337,4.419,12.8,6.531
			c19.011,9.001,40.584,16.475,63.943,22.277l3.704-14.693C126.843,346.721,106.214,339.576,88.068,330.984z"/>
	</g>
</g>
<g>
	<g>
		<path d="M511.212,168.242l-0.003-0.788l-0.165-0.77c-0.707-3.302-1.816-6.546-3.297-9.717c0.13-1.599,0.216-3.203,0.216-4.816
			c0-32.82-27.217-63.159-76.638-85.43c-47.496-21.403-110.477-33.19-177.343-33.19c-66.865,0-129.849,11.787-177.344,33.191
			C27.217,88.992,0,119.332,0,152.151c0,11.959,3.63,23.586,10.616,34.616C3.63,197.798,0,209.425,0,221.384S3.63,244.97,10.616,256
			C3.63,267.031,0,278.657,0,290.616c0,11.959,3.63,23.586,10.616,34.616C3.63,336.263,0,347.889,0,359.848
			c0,32.82,27.217,63.159,76.638,85.43c47.497,21.404,110.479,33.191,177.344,33.191c66.866,0,129.849-11.787,177.344-33.191
			c45.043-20.297,71.631-47.3,75.989-76.771c2.944-4.094,4.685-9.111,4.685-14.535L511.212,168.242z M82.871,80.555
			c45.58-20.54,106.348-31.851,171.111-31.851s125.531,11.312,171.111,31.852c33.058,14.898,55.267,33.756,63.789,53.54
			c-6.387-5.114-13.997-9.781-22.715-13.871c-23.998-11.259-54.885-17.46-86.968-17.46c-28.262,0-54.196,4.612-75.503,12.562
			c0.009-0.402,0.03-0.8,0.03-1.204c0-27.429-22.314-49.744-49.743-49.744c-27.429,0-49.744,22.315-49.744,49.744
			c0,25.454,19.222,46.491,43.91,49.39c-1.147,3.922-1.753,7.956-1.753,12.082c0,5.695,1.139,11.294,3.395,16.729
			c-17.598,6.297-30.105,15.932-35.509,27.402c-21.912,4.847-36.253,16.336-37.702,30.227
			c-34.958-5.276-66.951-14.148-93.707-26.205c-43.025-19.389-67.7-45.484-67.7-71.597S39.848,99.943,82.871,80.555z
			 M288.553,114.122c0,19.062-15.509,34.571-34.571,34.571c-19.063,0-34.572-15.509-34.572-34.571
			c0-19.063,15.509-34.572,34.572-34.572C273.044,79.551,288.553,95.059,288.553,114.122z M20.725,199.833
			c12.96,14.071,31.781,26.874,55.913,37.748c29.658,13.364,65.353,22.98,104.262,28.317c3.292,4.746,8.344,8.986,15.002,12.455
			c9.17,4.778,20.749,7.762,33.186,8.616v37.296c-55.327-2.517-106.53-13.401-146.216-31.285
			c-43.024-19.388-67.699-45.484-67.699-71.596C15.173,214.151,17.073,206.921,20.725,199.833z M20.725,269.065
			c12.96,14.071,31.781,26.874,55.912,37.748c41.718,18.799,95.386,30.178,153.137,32.668c2.619,10.942,12.475,19.104,24.208,19.104
			s21.59-8.161,24.208-19.104c16.507-0.712,32.679-2.149,48.334-4.279v53.921c-23.159,3.249-47.55,4.94-72.542,4.94
			c-64.763,0-125.531-11.312-171.111-31.851c-43.022-19.387-67.697-45.483-67.697-71.596
			C15.173,283.384,17.073,276.153,20.725,269.065z M278.878,324.265v-44.789c15.871,1.797,32.648,1.04,47.647-2.099v42.514
			C311.125,322.051,295.182,323.523,278.878,324.265z M425.092,431.445c-45.58,20.54-106.348,31.852-171.111,31.852
			S128.45,451.985,82.87,431.445c-43.022-19.387-67.697-45.483-67.697-71.596c0-7.232,1.901-14.464,5.552-21.551
			c12.96,14.071,31.781,26.874,55.913,37.748c47.497,21.403,110.479,33.191,177.344,33.191c24.921,0,49.301-1.64,72.542-4.802
			v14.573c0,13.727,11.168,24.895,24.895,24.895c13.726,0,24.894-11.168,24.894-24.895v-24.135
			c19.898-5.039,38.404-11.343,55.011-18.826c11.737-5.288,22.204-11.038,31.368-17.161c2.275,11.398,12.355,20.014,24.411,20.014
			c0.456,0,0.909-0.014,1.361-0.038C479.648,398.294,457.62,416.788,425.092,431.445z M431.325,306.814
			c11.53-5.196,21.836-10.836,30.885-16.84v50.511c-10.111,7.837-22.56,15.168-37.118,21.727
			c-14.785,6.663-31.178,12.348-48.778,16.998v-53.57C396.213,320.601,414.718,314.297,431.325,306.814z M376.315,309.978v-53.57
			c7.434-1.882,14.676-3.938,21.694-6.17c18.73-2.602,43.585-7.36,64.202-16.936v37.95c-10.111,7.837-22.56,15.168-37.118,21.727
			C410.307,299.643,393.915,305.328,376.315,309.978z M487.106,363.726c-5.361,0-9.722-4.362-9.722-9.723V206.95l-11.604,7.245
			c-26.627,16.623-69.777,21.238-88.202,23.208c-10.844,1.159-12.798,1.369-15.069,4.623l-1.367,1.956v175.025
			c0,5.361-4.361,9.723-9.722,9.723s-9.723-4.362-9.723-9.723V257.515l-9.732,2.869c-10.846,3.197-23.235,4.888-35.826,4.888
			c-6.977,0-13.917-0.52-20.627-1.546l-2.521-0.385l-2.243,1.216c-0.768,0.417-1.631,0.845-2.639,1.311l-4.405,2.035v65.788
			c0,5.361-4.361,9.723-9.723,9.723c-5.361,0-9.723-4.362-9.723-9.723v-61.642h-7.586l-0.154,0.002
			c-25.698,0-44.899-10.433-44.899-19.761c0-6.447,10.347-15.107,29.521-18.455l4.618-0.806l1.345-4.49
			c2.972-9.919,16.629-19.257,35.644-24.37l10.159-2.732l-5.798-8.776c-3.676-5.562-5.539-11.304-5.539-17.064
			c0-4.416,1.077-8.735,3.104-12.897c15.864-3.49,28.918-14.562,35.132-29.219c21.103-9.59,49.131-15.541,79.393-15.541
			c58.879,0,109.916,22.431,116.845,51.203l0.784,184.863C496.827,359.364,492.467,363.726,487.106,363.726z"/>
	</g>
</g>
<g>
</g>
<g>
</g>
<g>
</g>
<g>
</g>
<g>
</g>
<g>
</g>
<g>
</g>
<g>
</g>
<g>
</g>
<g>
</g>
<g>
</g>
<g>
</g>
<g>
</g>
<g>
</g>
<g>
</g>
</svg>
