<svg id="Capa_1" enable-background="new 0 0 472 472" height="512" viewBox="0 0 472 472" width="512" xmlns="http://www.w3.org/2000/svg"><path d="m46.336 280.09c-1.546 4.317-2.336 8.868-2.336 13.453v121.157l-15.586 46.769c-1.398 4.191.867 8.722 5.058 10.12.815.272 1.668.411 2.528.411h108c3.67-.001 6.868-2.499 7.758-6.059l11.789-47.277 13.179-37.339c3.699-1.576 7.058-3.854 9.891-6.708.52-.519.9-1.13 1.381-1.678 11.427 13.301 31.473 14.821 44.774 3.395.637-.548 1.253-1.12 1.845-1.717.52-.519.9-1.13 1.381-1.678 11.427 13.301 31.473 14.821 44.774 3.395.637-.548 1.253-1.12 1.845-1.717.52-.519.9-1.13 1.381-1.678 6.016 6.995 14.775 11.031 24.002 11.061.993 0 1.972-.246 2.963-.342l5.053 80.842c.264 4.216 3.76 7.5 7.984 7.5h112c4.418 0 8-3.582 8-8 0-.332-.021-.663-.062-.992l-15.938-127.508v-121.957c0-4.585-.79-9.136-2.336-13.453l-30.547-85.539c-5.703-15.909-20.772-26.53-37.672-26.551h-17.445v-80c0-4.418-3.582-8-8-8h-192c-2.917.001-5.602 1.589-7.008 4.145l-88 160c-1.998 3.633-.889 8.191 2.555 10.5 9.642 6.472 20.996 9.923 32.609 9.911.733 0 1.44-.12 2.167-.146-2.296 3.096-4.129 6.51-5.44 10.134zm101.906 133.969-10.492 41.941h-90.65l12.484-37.469c.274-.816.415-1.67.416-2.531v-122.457c-.001-2.75.473-5.48 1.4-8.07l30.547-85.547c3.43-9.54 12.47-15.909 22.608-15.926h17.445v110.1l-31.156 62.318 14.312 7.156 49.164-98.336c4.131-8.261 14.176-11.608 22.437-7.477 5.667 2.834 9.245 8.627 9.243 14.962v3.043c.002 1.895-.321 3.776-.953 5.562zm159.758-46.059c-8.832-.01-15.99-7.168-16-16v-59.957l16.086 45.57 1.885 30.158c-.652.119-1.31.195-1.971.229zm49.445-264c10.14.016 19.182 6.387 22.61 15.93l30.545 85.543c.927 2.59 1.401 5.32 1.4 8.07v122.457c.001.332.022.663.062.992l14.876 119.008h-95.422l-7.532-120.5c-.047-.738-.194-1.466-.437-2.164l-46.594-132c-.632-1.789-.954-3.673-.953-5.57v-3.043c-.001-9.236 7.486-16.724 16.722-16.724 6.334 0 12.125 3.578 14.958 9.243l49.164 98.336 14.312-7.156-31.156-62.322v-110.1zm-294.6 60.887 81.882-148.887h179.273v166.1l-2.008-4.016c-8.084-16.164-27.741-22.715-43.905-14.631-11.086 5.544-18.088 16.875-18.087 29.27v3.043c-.001 3.709.627 7.391 1.859 10.89l14.141 40.06v105.284c0 8.837-7.163 16-16 16s-16-7.163-16-16v-152h-16v152c0 8.837-7.163 16-16 16s-16-7.163-16-16v-25.287l14.141-40.065c1.232-3.496 1.861-7.176 1.859-10.882v-3.043c-.034-11.492-6.112-22.119-16-27.975v-44.748h-16v40.073c-.245-.006-.473-.073-.719-.073-12.407-.043-23.76 6.971-29.273 18.086l-2.008 4.014v-142.1c-.004-4.418-3.588-7.997-8.007-7.993-3.022.002-5.784 1.707-7.141 4.407l-14.243 28.4c-10.239 20.516-34.798 29.359-55.765 20.078zm69.155-11.164v14.277h-10.96c4.36-4.172 8.056-8.987 10.96-14.277z"/></svg>