<?xml version="1.0"?>
<svg xmlns="http://www.w3.org/2000/svg" viewBox="0 0 512 512" width="512" height="512"><g id="outline"><path d="M256,16C158.95,16,80,94.956,80,192a32.032,32.032,0,0,0,32,32h56v48a71.939,71.939,0,0,0,48,67.829V488a8,8,0,0,0,8,8h64a8,8,0,0,0,8-8V339.832A71.939,71.939,0,0,0,344,272V224h56a32.031,32.031,0,0,0,32-32C432,94.956,353.044,16,256,16Zm132.048,85.816-33.113,9.08a128.943,128.943,0,0,0-30.77-27.043l28.474-19.071A161.155,161.155,0,0,1,388.045,101.819Zm-23.31,22.991,32.032-8.784a158.851,158.851,0,0,1,16.368,46.348l-33.187-1.736A127.094,127.094,0,0,0,364.735,124.81Zm-94.36-59.944,19.469-29.184a158.74,158.74,0,0,1,48.513,19.4L308.231,75.264A126.8,126.8,0,0,0,270.375,64.866Zm2.121-32.01L251.568,64.228a127.031,127.031,0,0,0-40.414,8.041L218.19,36.7A156.05,156.05,0,0,1,272.5,32.856ZM163.761,103.482,154.2,68.656a160,160,0,0,1,46.62-26.643L193.189,80.6A128.7,128.7,0,0,0,163.761,103.482ZM141,81.02l10.308,37.568a127.541,127.541,0,0,0-17.161,34.338l-23.167-28.1A160.516,160.516,0,0,1,141,81.02ZM96,192a159.113,159.113,0,0,1,8.188-50.2L129.6,172.813A127.683,127.683,0,0,0,128,192v16H112A16.021,16.021,0,0,1,96,192Zm232,80a55.941,55.941,0,0,1-42,54.157,8.007,8.007,0,0,0-6,7.75V480H264V440H248v40H232V343.344a73.176,73.176,0,0,0,9.312.66H248v80h16V336a8,8,0,0,0-8-8H241.309a57.366,57.366,0,0,1-56.826-50.216c-.131-1.263-.273-2.52-.319-3.8-.063-1.1-.167-2.182-.167-3.294V224h16v48a24,24,0,1,0,48,0V224h16v48a24,24,0,1,0,48,0V224h16Zm-96-48v48a8,8,0,0,1-16,0V224Zm64,0v48a8,8,0,0,1-16,0V224ZM144,208V192a112,112,0,0,1,224,0v16Zm256,0H384V192a128.187,128.187,0,0,0-.985-15.176l32.3,1.69c.374,4.457.683,8.934.683,13.486A16.021,16.021,0,0,1,400,208Z"/><path d="M313.692,146.058a8,8,0,0,0,12.61-9.844,82.506,82.506,0,0,0-8.852-9.672,8,8,0,1,0-10.906,11.7A67.912,67.912,0,0,1,313.692,146.058Z"/><path d="M288,125.222a8,8,0,0,0,2.922-15.445A83.32,83.32,0,0,0,260.333,104a8,8,0,0,0,0,16,67.441,67.441,0,0,1,24.742,4.664A8.008,8.008,0,0,0,288,125.222Z"/><path d="M200,142.87a7.959,7.959,0,0,0,5.6-2.289,71.826,71.826,0,0,1,21.6-14.593,8,8,0,0,0-6.406-14.657,87.775,87.775,0,0,0-26.4,17.828A8,8,0,0,0,200,142.87Z"/><path d="M320,176H280a8,8,0,0,0,0,16h40a8,8,0,0,0,0-16Z"/><path d="M248,176H232a8,8,0,0,0,0,16h16a8,8,0,0,0,0-16Z"/><path d="M200,176h-9.805a8,8,0,0,1-7.578-10.539l.976-2.937A8,8,0,1,0,168.4,157.48l-.969,2.93A23.991,23.991,0,0,0,190.192,192H200a8,8,0,0,0,0-16Z"/></g></svg>
